<svg width="1080" height="1080" viewBox="0 0 1080 1080" fill="none" xmlns="http://www.w3.org/2000/svg">
  <defs>
    <linearGradient id="bg" x1="0" y1="0" x2="1080" y2="1080" gradientUnits="userSpaceOnUse">
      <stop offset="0" stop-color="#0A0F16"/>
      <stop offset="0.56" stop-color="#0E141D"/>
      <stop offset="1" stop-color="#141D28"/>
    </linearGradient>
    <pattern id="grid" width="45" height="45" patternUnits="userSpaceOnUse">
      <path d="M45 0H0V45" stroke="#283747" stroke-width="1" opacity="0.42"/>
    </pattern>
    <clipPath id="frame">
      <rect width="1080" height="1080" rx="0"/>
    </clipPath>
  </defs>

  <g clip-path="url(#frame)">
    <rect width="1080" height="1080" fill="url(#bg)"/>
    <rect width="1080" height="1080" fill="url(#grid)" opacity="0.5"/>

    <g transform="translate(562 -126) scale(3.52)" stroke="#5FE3DA" opacity="0.14">
      <circle cx="100" cy="100" r="28" stroke-width="0.75"/>
      <circle cx="100" cy="100" r="46" stroke-width="0.75"/>
      <circle cx="100" cy="100" r="64" stroke-width="0.75"/>
      <circle cx="100" cy="100" r="82" stroke-width="0.75"/>
      <circle cx="100" cy="100" r="96" stroke-width="1.25"/>
      <line x1="100" y1="70" x2="100" y2="8" stroke-width="0.5"/>
      <line x1="130" y1="100" x2="192" y2="100" stroke-width="0.5"/>
      <line x1="100" y1="130" x2="100" y2="192" stroke-width="0.5"/>
      <line x1="70" y1="100" x2="8" y2="100" stroke-width="0.5"/>
      <line x1="121.21" y1="78.79" x2="165.05" y2="34.95" stroke-width="0.5"/>
      <line x1="121.21" y1="121.21" x2="165.05" y2="165.05" stroke-width="0.5"/>
      <line x1="78.79" y1="121.21" x2="34.95" y2="165.05" stroke-width="0.5"/>
      <line x1="78.79" y1="78.79" x2="34.95" y2="34.95" stroke-width="0.5"/>
      <circle cx="100" cy="100" r="10" stroke-width="1.5"/>
      <circle cx="100" cy="100" r="2.5" fill="#5FE3DA" stroke="none"/>
    </g>

    <g transform="translate(80 82)">
      <text x="0" y="0" fill="#F2F6F7" font-family="Space Grotesk, Arial, sans-serif" font-size="38" font-weight="600" letter-spacing="0">
        AI <tspan fill="#FF2E9A" font-weight="700">x</tspan> Blockchain Day
      </text>
      <text x="0" y="52" fill="#5FE3DA" font-family="JetBrains Mono, Menlo, monospace" font-size="18" font-weight="500" letter-spacing="3.4">
        JUE 09 JUL 2026 / CDMX
      </text>
    </g>

    <g transform="translate(80 232)">
      <text x="0" y="0" fill="#5FE3DA" font-family="JetBrains Mono, Menlo, monospace" font-size="22" font-weight="500" letter-spacing="5">
        COWORKING + CONEXIONES
      </text>
      <text x="-6" y="137" fill="#F8FBFB" font-family="Space Grotesk, Arial, sans-serif" font-size="139" font-weight="500" letter-spacing="0">
        Coworking
      </text>
      <text x="-8" y="290" fill="#F8FBFB" font-family="Space Grotesk, Arial, sans-serif" font-size="183" font-weight="500" letter-spacing="0">
        8:00 AM
      </text>
      <text x="2" y="348" fill="#A9BBC4" font-family="Space Grotesk, Arial, sans-serif" font-size="33" font-weight="400" letter-spacing="0">
        El espacio abre antes del
      </text>
      <text x="2" y="390" fill="#A9BBC4" font-family="Space Grotesk, Arial, sans-serif" font-size="33" font-weight="400" letter-spacing="0">
        programa principal.
      </text>
    </g>

    <g transform="translate(80 730)">
      <line x1="0" y1="0" x2="920" y2="0" stroke="#34C9C0" stroke-width="4"/>
      <circle cx="0" cy="0" r="14" fill="#0E141D" stroke="#34C9C0" stroke-width="5"/>
      <circle cx="390" cy="0" r="14" fill="#0E141D" stroke="#34C9C0" stroke-width="5"/>
      <text x="0" y="54" fill="#F2F6F7" font-family="JetBrains Mono, Menlo, monospace" font-size="19" font-weight="500" letter-spacing="2.8">
        08:00 ABRE COWORKING
      </text>
      <text x="390" y="54" fill="#A9BBC4" font-family="JetBrains Mono, Menlo, monospace" font-size="19" font-weight="500" letter-spacing="2.8">
        12:00 INICIA PROGRAMA PRINCIPAL
      </text>
    </g>

    <rect x="38" y="38" width="1004" height="1004" stroke="#283747" stroke-width="1"/>
    <path d="M38 98V38H98" stroke="#34C9C0" stroke-width="4"/>
    <path d="M1042 982V1042H982" stroke="#34C9C0" stroke-width="4"/>
    <path d="M1042 98V38H982" stroke="#E6007E" stroke-width="4"/>
  </g>
</svg>
